<svg width="360" height="287" viewBox="0 0 360 287" fill="none" xmlns="http://www.w3.org/2000/svg">
<path d="M270.071 32.2434C276.473 32.2434 281.662 27.0507 281.662 20.6451C281.662 14.2396 276.473 9.04684 270.071 9.04684C263.669 9.04684 258.479 14.2396 258.479 20.6451C258.479 27.0507 263.669 32.2434 270.071 32.2434Z" fill="#2F2E41"/>
<path d="M261.879 27.7218C261.879 27.7218 260.203 48.8478 258.191 48.8478C256.179 48.8478 281.663 47.8537 281.663 47.8537C281.663 47.8537 270.933 33.9353 276.298 29.4616C281.663 24.9879 261.879 27.7218 261.879 27.7218Z" fill="#9F616A"/>
<path opacity="0.1" d="M261.879 27.7218C261.879 27.7218 260.203 48.8478 258.191 48.8478C256.179 48.8478 281.663 47.8537 281.663 47.8537C281.663 47.8537 270.933 33.9353 276.298 29.4616C281.663 24.9879 261.879 27.7218 261.879 27.7218Z" fill="black"/>
<path d="M214.99 270.642C191.671 270.642 169.073 262.552 151.047 247.75C133.021 232.947 120.683 212.349 116.133 189.465C111.584 166.58 115.105 142.825 126.098 122.248C137.09 101.67 154.874 85.5425 176.418 76.6134C197.962 67.6842 221.933 66.5058 244.248 73.2789C266.563 80.0521 285.841 94.3576 298.796 113.758C311.752 133.159 317.584 156.454 315.298 179.674C313.012 202.895 302.751 224.604 286.262 241.103C276.924 250.497 265.817 257.945 253.583 263.016C241.349 268.086 228.232 270.678 214.99 270.642ZM214.99 69.9823C159.989 69.9823 115.242 114.756 115.242 169.79C115.242 224.823 159.989 269.597 214.99 269.597C269.992 269.597 314.739 224.823 314.739 169.79C314.739 114.756 269.992 69.9823 214.99 69.9823Z" fill="#3F3D56"/>
<path d="M291.987 73.9434L280.271 77.298L296.637 76.5511C300.316 76.351 303.931 77.5683 306.741 79.9527C309.657 82.4784 312.007 86.4846 309.744 92.4068C305.218 104.251 298.254 115.399 298.254 115.399L293.728 124.108C293.728 124.108 284.328 125.502 283.98 122.715C283.632 119.928 283.98 118.534 285.72 117.141C287.461 115.747 288.506 112.96 288.506 111.567C288.506 110.174 288.158 108.78 289.202 108.083C290.247 107.387 290.595 106.342 290.595 104.251C290.595 102.161 296.634 92.9746 296.634 92.9746C296.634 92.9746 283.98 88.5748 278.53 92.2778C273.08 95.9808 262.045 112.264 262.045 112.264C261.321 113.021 260.715 113.884 260.246 114.821C259.687 115.91 258.913 116.873 257.971 117.654C256.958 118.544 257.891 120.996 258.216 121.321C258.564 121.67 262.045 135.604 262.045 135.604C262.045 135.604 265.875 142.223 261.697 142.572C257.519 142.92 253.69 143.268 253.341 142.572C252.954 141.606 252.489 140.674 251.949 139.785C250.904 138.043 251.949 134.211 251.949 134.211C251.949 134.211 241.852 121.321 244.985 113.309C248.119 105.296 254.734 87.1813 254.734 87.1813L264.831 83.0009L283.283 76.382L291.987 73.9434Z" fill="#2F2E41"/>
<path d="M221.659 36.3197L207.384 33.5328C207.384 33.5328 203.902 21.6883 199.724 23.0818C195.546 24.4752 202.51 36.3197 202.51 36.3197L222.355 45.3773L221.659 36.3197Z" fill="#A0616A"/>
<path d="M308.351 48.1642L314.618 56.1766C314.618 56.1766 323.67 55.8283 320.885 60.7054C318.1 65.5825 311.833 62.7956 311.485 61.7505C311.136 60.7054 301.04 51.6479 301.04 51.6479L308.351 48.1642Z" fill="#A0616A"/>
<path d="M275.745 37.5841L266.692 44.5515L261.122 36.1907L217.95 33.7521V48.0352C228.574 44.9656 238.354 44.0147 246.151 48.0352C256.02 61.1841 258.191 75.4626 251.949 90.9759L302.901 73.1176C287.63 67.4276 280.541 59.1788 282.708 48.0352L300.464 54.3058L311.257 46.2933C301.606 39.7949 287.242 35.7192 275.745 37.5841Z" fill="#167EE0"/>
<path d="M180 287C279.411 287 360 280.917 360 273.414C360 265.91 279.411 259.827 180 259.827C80.5887 259.827 0 265.91 0 273.414C0 280.917 80.5887 287 180 287Z" fill="#3F3D56"/>
<path opacity="0.1" d="M129.691 282.123C196.894 282.123 251.373 278.068 251.373 273.065C251.373 268.063 196.894 264.008 129.691 264.008C62.487 264.008 8.00775 268.063 8.00775 273.065C8.00775 278.068 62.487 282.123 129.691 282.123Z" fill="black"/>
<path d="M325.588 254.972C324.428 265.141 330.676 274.205 330.676 274.205C330.676 274.205 338.805 266.782 339.965 256.613C341.124 246.444 334.876 237.38 334.876 237.38C334.876 237.38 326.748 244.803 325.588 254.972Z" fill="#2F2E41"/>
<path d="M330.019 254.447C334.2 263.788 330.986 274.319 330.986 274.319C330.986 274.319 320.994 269.705 316.813 260.364C312.633 251.023 315.847 240.492 315.847 240.492C315.847 240.492 325.839 245.106 330.019 254.447Z" fill="#167EE0"/>
<path d="M217.796 272.878C239.343 272.878 256.81 255.4 256.81 233.841C256.81 212.282 239.343 194.804 217.796 194.804C196.249 194.804 178.782 212.282 178.782 233.841C178.782 255.4 196.249 272.878 217.796 272.878Z" fill="#F2F2F2"/>
<path d="M217.796 173.659L208.185 197.701L173.432 197.979L162.11 198.071L135.243 198.287L123.926 198.379L97.0587 198.595L85.7419 198.686L58.8745 198.907L47.5576 198.999L29.4218 199.143L25.9138 191.959L21.363 182.655L18.8498 177.506L17.4081 173.659L26.034 146.324C26.8773 143.653 28.5492 141.321 30.807 139.665C33.0649 138.009 35.7913 137.116 38.5906 137.116H195.528C198.246 137.118 200.897 137.96 203.117 139.529C205.338 141.097 207.019 143.315 207.93 145.877L208.93 148.694L217.796 173.659Z" fill="#167EE0"/>
<path d="M217.796 173.66H17.4081V224.147H217.796V173.66Z" fill="#167EE0"/>
<path opacity="0.1" d="M217.796 173.66H17.4081V224.147H217.796V173.66Z" fill="black"/>
<path d="M220.752 104.311H214.84V110.225H220.752V104.311Z" fill="#3F3D56"/>
<path d="M236.712 230.884H230.801V236.798H236.712V230.884Z" fill="#3F3D56"/>
<path d="M181.515 108.507H53.2089V270.065H181.515V108.507Z" fill="#F2F2F2"/>
<path d="M117.602 120.047H80.1194V125.336H117.602V120.047Z" fill="#3F3D56"/>
<path d="M173.345 141.684H60.4171V144.088H173.345V141.684Z" fill="#E6E6E6"/>
<path d="M173.345 149.377H60.4171V151.781H173.345V149.377Z" fill="#E6E6E6"/>
<path d="M173.345 157.071H60.4171V159.475H173.345V157.071Z" fill="#E6E6E6"/>
<path d="M173.345 164.764H60.4171V167.168H173.345V164.764Z" fill="#E6E6E6"/>
<path d="M173.345 172.457H60.4171V174.861H173.345V172.457Z" fill="#E6E6E6"/>
<path d="M173.345 180.15H60.4171V182.555H173.345V180.15Z" fill="#E6E6E6"/>
<path d="M65.2225 129.663C63.6068 129.663 62.0273 129.184 60.6839 128.286C59.3405 127.388 58.2934 126.111 57.6751 124.617C57.0568 123.124 56.895 121.48 57.2102 119.895C57.5254 118.309 58.3035 116.852 59.446 115.709C60.5885 114.566 62.0441 113.788 63.6288 113.472C65.2135 113.157 66.856 113.319 68.3488 113.937C69.8415 114.556 71.1174 115.604 72.015 116.948C72.9127 118.292 73.3918 119.873 73.3918 121.489C73.3894 123.656 72.5279 125.734 70.9964 127.266C69.4649 128.799 67.3884 129.661 65.2225 129.663ZM65.2225 114.277C63.7969 114.277 62.4032 114.7 61.2179 115.492C60.0325 116.285 59.1086 117.411 58.563 118.729C58.0174 120.047 57.8747 121.497 58.1528 122.896C58.4309 124.295 59.1175 125.58 60.1255 126.589C61.1336 127.598 62.418 128.285 63.8163 128.563C65.2145 128.841 66.6638 128.699 67.981 128.153C69.2981 127.607 70.4239 126.682 71.2159 125.496C72.008 124.31 72.4307 122.916 72.4307 121.489C72.4285 119.577 71.6684 117.744 70.3171 116.392C68.9658 115.039 67.1336 114.279 65.2225 114.277Z" fill="#167EE0"/>
<path d="M217.796 274.152H17.4081V173.659L43.3577 193.854L192.808 192.892L217.796 173.659V274.152Z" fill="#3F3D56"/>
<path d="M65.2225 250.832H27.7399V256.121H65.2225V250.832Z" fill="#F2F2F2"/>
<path d="M47.4101 240.9C46.5838 240.9 45.776 240.655 45.089 240.196C44.4019 239.737 43.8664 239.084 43.5502 238.32C43.234 237.556 43.1513 236.715 43.3125 235.905C43.4737 235.094 43.8716 234.349 44.4559 233.764C45.0402 233.179 45.7846 232.781 46.5951 232.62C47.4055 232.459 48.2455 232.541 49.009 232.858C49.7724 233.174 50.4249 233.71 50.884 234.398C51.343 235.085 51.5881 235.893 51.5881 236.72C51.5868 237.828 51.1462 238.891 50.363 239.675C49.5797 240.458 48.5178 240.899 47.4101 240.9ZM47.4101 233.236C46.7215 233.236 46.0484 233.441 45.4758 233.824C44.9033 234.206 44.457 234.75 44.1935 235.387C43.93 236.023 43.8611 236.724 43.9954 237.4C44.1297 238.075 44.4613 238.696 44.9482 239.183C45.4352 239.671 46.0555 240.002 46.7309 240.137C47.4063 240.271 48.1063 240.202 48.7425 239.939C49.3787 239.675 49.9224 239.228 50.305 238.656C50.6876 238.083 50.8918 237.409 50.8918 236.72C50.8907 235.796 50.5236 234.911 49.8709 234.258C49.2182 233.605 48.3332 233.237 47.4101 233.236Z" fill="white"/>
<path d="M292.684 122.366C292.684 122.366 294.773 130.379 295.469 130.727C296.165 131.076 303.825 137.695 298.602 138.74C293.38 139.785 289.55 139.436 288.506 138.391C287.461 137.346 287.809 136.301 286.069 135.953C284.328 135.604 281.194 134.559 281.543 132.121C281.891 129.682 283.631 123.063 284.676 122.366C285.72 121.67 292.684 122.366 292.684 122.366Z" fill="#2F2E41"/>
<path d="M262.394 140.133C262.394 140.133 265.527 142.572 263.786 147.1C262.045 151.629 259.608 156.506 259.608 156.506C259.608 156.506 256.823 165.216 252.297 163.822C250.458 163.256 249.539 161.713 249.095 160.079C248.775 158.845 248.723 157.557 248.941 156.3C249.159 155.044 249.643 153.849 250.36 152.795L252.993 148.842L255.778 141.527L262.394 140.133Z" fill="#2F2E41"/>
<path d="M254.752 173.86C260.993 173.86 268.715 171.792 276.24 164.314C294.661 146.008 312.162 144.172 312.337 144.156L312.272 143.462C312.095 143.478 294.345 145.34 275.749 163.82C266.193 173.316 256.33 173.898 249.739 172.713C245.385 171.922 241.239 170.25 237.553 167.799L237.142 168.361C240.905 170.868 245.14 172.581 249.588 173.393C251.292 173.703 253.02 173.859 254.752 173.86Z" fill="#2F2E41"/>
<path d="M302.954 158.771C305.262 158.771 307.132 156.899 307.132 154.59C307.132 152.282 305.262 150.41 302.954 150.41C300.647 150.41 298.777 152.282 298.777 154.59C298.777 156.899 300.647 158.771 302.954 158.771Z" fill="#2F2E41"/>
<path d="M273.361 178.279C275.668 178.279 277.539 176.408 277.539 174.099C277.539 171.79 275.668 169.919 273.361 169.919C271.053 169.919 269.183 171.79 269.183 174.099C269.183 176.408 271.053 178.279 273.361 178.279Z" fill="#2F2E41"/>
<path d="M269.132 35.5723C273.746 35.5723 277.486 31.8297 277.486 27.213C277.486 22.5962 273.746 18.8536 269.132 18.8536C264.518 18.8536 260.777 22.5962 260.777 27.213C260.777 31.8297 264.518 35.5723 269.132 35.5723Z" fill="#A0616A"/>
<path d="M276.121 0C275.245 1.25172 273.947 2.14477 272.465 2.51479C269.909 3.19978 272.444 7.04383 272.444 7.04383C272.444 7.04383 271.522 5.64599 272.852 4.16565C274.182 2.6853 276.322 1.67322 276.121 0Z" fill="#2F2E41"/>
<path d="M271.991 11.1983C273.775 11.1983 275.222 9.7511 275.222 7.96595C275.222 6.18079 273.775 4.73364 271.991 4.73364C270.207 4.73364 268.761 6.18079 268.761 7.96595C268.761 9.7511 270.207 11.1983 271.991 11.1983Z" fill="#2F2E41"/>
<path d="M276.116 10.6752C273.482 9.67848 269.097 9.17314 266.841 9.51858L267.151 7.25806C269.319 8.37964 273.684 8.90671 276.425 8.41464L276.116 10.6752Z" fill="#3F3D56"/>
<path d="M270.324 13.2261C270.324 13.2261 267.023 18.7192 259.348 20.7755C251.674 22.8318 259.286 34.3716 259.286 34.3716C259.286 34.3716 256.518 30.1753 260.51 25.7313C264.503 21.2874 270.928 18.2491 270.324 13.2261Z" fill="#2F2E41"/>
<path d="M270.586 12.8924C270.586 12.8924 273.756 20.4373 277.237 21.1506C280.718 21.8639 280.454 33.7857 275.01 35.5734C275.01 35.5734 278.98 28.5844 275.587 23.8971C272.194 19.2099 270.051 15.5046 270.586 12.8924Z" fill="#2F2E41"/>
</svg>
